<svg id="text-logo" width="116" height="35" viewBox="0 0 116 35" fill="none" xmlns="http://www.w3.org/2000/svg">
<path d="M0.5 30C0.5 31.3807 1.61929 32.5 3 32.5C4.38071 32.5 5.5 31.3807 5.5 30H0.5ZM51.5647 30C51.5647 31.3807 52.684 32.5 54.0647 32.5C55.4455 32.5 56.5647 31.3807 56.5647 30H51.5647ZM44.1764 11.0858C44.9434 9.93777 44.6346 8.38528 43.4865 7.61823C42.3385 6.85118 40.786 7.16003 40.0189 8.30807L44.1764 11.0858ZM26.4537 28.6111C25.6866 29.7592 25.9955 31.3117 27.1435 32.0787C28.2915 32.8458 29.844 32.5369 30.6111 31.3889L26.4537 28.6111ZM5.5 30C5.5 16.9783 15.8545 6.5 28.5324 6.5V1.5C13.0079 1.5 0.5 14.3029 0.5 30H5.5ZM28.5324 6.5C41.2102 6.5 51.5647 16.9783 51.5647 30H56.5647C56.5647 14.3029 44.0568 1.5 28.5324 1.5V6.5ZM40.0189 8.30807L26.4537 28.6111L30.6111 31.3889L44.1764 11.0858L40.0189 8.30807Z" fill="currentColor"/>
<path d="M58.3416 5.46875H57.1609V7.13184H55.3582V8.03955H57.1609V11.772C57.1609 12.1951 57.2159 12.557 57.3259 12.8574C57.4402 13.1536 57.5946 13.3949 57.7893 13.5811C57.984 13.7715 58.2125 13.9111 58.4749 14C58.7415 14.0846 59.0271 14.127 59.3318 14.127C59.5138 14.127 59.6957 14.1185 59.8777 14.1016C60.0639 14.0846 60.2395 14.0592 60.4045 14.0254C60.5696 13.9958 60.7219 13.9598 60.8616 13.9175C61.0012 13.8709 61.1197 13.818 61.217 13.7588L61.052 12.9272C60.9801 12.9442 60.887 12.9653 60.7727 12.9907C60.6627 13.0119 60.5442 13.033 60.4172 13.0542C60.2861 13.0754 60.1528 13.0944 60.0173 13.1113C59.8819 13.124 59.7507 13.1304 59.6238 13.1304C59.4503 13.1304 59.2852 13.1092 59.1287 13.0669C58.9763 13.0246 58.8409 12.9505 58.7224 12.8447C58.6039 12.7432 58.5108 12.6056 58.4431 12.4321C58.3754 12.2586 58.3416 12.0386 58.3416 11.772V8.03955H60.9568V7.13184H58.3416V5.46875ZM63.9211 16.7739C64.2301 16.7739 64.503 16.7168 64.74 16.6025C64.977 16.4883 65.1843 16.3465 65.3621 16.1772C65.5398 16.008 65.69 15.8239 65.8127 15.625C65.9397 15.4261 66.0434 15.2378 66.1238 15.0601L69.6086 7.13184H68.2947L66.5237 11.5879L66.2 12.394L65.8953 11.5625L64.01 7.13184H62.696L65.6541 13.6763L65.1843 14.5903C65.142 14.675 65.0828 14.7829 65.0066 14.9141C64.9347 15.0452 64.8479 15.1722 64.7463 15.2949C64.6405 15.4176 64.5199 15.5234 64.3845 15.6123C64.2533 15.7012 64.1073 15.7456 63.9465 15.7456C63.8873 15.7456 63.8048 15.7414 63.699 15.7329C63.5974 15.7287 63.4937 15.7223 63.3879 15.7139L63.1975 16.6724C63.2737 16.6893 63.3858 16.7104 63.5339 16.7358C63.682 16.7612 63.8111 16.7739 63.9211 16.7739ZM71.1702 16.6406H72.3445V13.3398C72.4291 13.4329 72.5201 13.5197 72.6174 13.6001C72.7148 13.6763 72.8184 13.7461 72.9285 13.8096C73.1104 13.9111 73.3136 13.9894 73.5378 14.0444C73.7664 14.0994 74.0118 14.127 74.2742 14.127C74.7058 14.127 75.0888 14.0381 75.4231 13.8604C75.7616 13.6826 76.0452 13.4372 76.2737 13.124C76.5022 12.8109 76.6757 12.4427 76.7942 12.0195C76.9127 11.5921 76.9719 11.133 76.9719 10.6421V10.5088C76.9719 9.99674 76.9127 9.52702 76.7942 9.09961C76.6757 8.66797 76.5022 8.29769 76.2737 7.98877C76.0452 7.67985 75.7616 7.43864 75.4231 7.26514C75.0846 7.09163 74.6952 7.00488 74.2551 7.00488C74.0055 7.00488 73.7706 7.03239 73.5505 7.0874C73.3347 7.13818 73.1379 7.21436 72.9602 7.31592C72.8333 7.38363 72.7148 7.46615 72.6047 7.56348C72.4947 7.65658 72.3931 7.76237 72.3 7.88086L72.2429 7.13184H71.1702V16.6406ZM75.7976 10.5088V10.6421C75.7976 10.9764 75.7595 11.2959 75.6833 11.6006C75.6114 11.9053 75.4993 12.174 75.3469 12.4067C75.1946 12.6395 74.9999 12.8257 74.7629 12.9653C74.526 13.1007 74.2445 13.1685 73.9187 13.1685C73.7156 13.1685 73.5294 13.1431 73.3601 13.0923C73.1951 13.0415 73.0448 12.9717 72.9094 12.8828C72.7909 12.8066 72.6851 12.7135 72.592 12.6035C72.4989 12.4935 72.4164 12.375 72.3445 12.248V8.94092C72.4249 8.79704 72.518 8.66585 72.6238 8.54736C72.7296 8.42887 72.8502 8.32943 72.9856 8.24902C73.1083 8.16862 73.2458 8.10726 73.3982 8.06494C73.5548 8.02262 73.724 8.00146 73.906 8.00146C74.2361 8.00146 74.5196 8.06917 74.7566 8.20459C74.9936 8.34001 75.1903 8.52197 75.3469 8.75049C75.4993 8.98324 75.6114 9.25195 75.6833 9.55664C75.7595 9.8571 75.7976 10.1745 75.7976 10.5088ZM82.0183 14.127C82.6869 14.127 83.2476 13.9937 83.7004 13.7271C84.1575 13.4562 84.5002 13.1473 84.7288 12.8003L84.0115 12.2417C83.7957 12.521 83.5248 12.7453 83.199 12.9146C82.8731 13.0838 82.5007 13.1685 82.0818 13.1685C81.7644 13.1685 81.4745 13.1092 81.2122 12.9907C80.9498 12.8722 80.7255 12.7093 80.5393 12.502C80.3573 12.3073 80.2135 12.083 80.1077 11.8291C80.0061 11.5752 79.9405 11.2811 79.9109 10.9468V10.9023H84.8176V10.3755C84.8176 9.8973 84.7563 9.45296 84.6335 9.04248C84.5151 8.632 84.3331 8.27441 84.0876 7.96973C83.8422 7.66927 83.5333 7.43441 83.1609 7.26514C82.7927 7.09163 82.3611 7.00488 81.866 7.00488C81.4724 7.00488 81.0873 7.08529 80.7107 7.24609C80.3383 7.4069 80.0061 7.63753 79.7141 7.93799C79.4179 8.24268 79.1809 8.61507 79.0032 9.05518C78.8254 9.49105 78.7366 9.98617 78.7366 10.5405V10.8071C78.7366 11.2853 78.817 11.7275 78.9778 12.1338C79.1386 12.54 79.3629 12.8913 79.6506 13.1875C79.9384 13.4837 80.2833 13.7144 80.6853 13.8794C81.0916 14.0444 81.5359 14.127 82.0183 14.127ZM81.866 7.96973C82.1664 7.96973 82.4246 8.02474 82.6404 8.13477C82.8604 8.24479 83.0424 8.38867 83.1863 8.56641C83.3302 8.74414 83.4423 8.95573 83.5227 9.20117C83.6031 9.44238 83.6433 9.66878 83.6433 9.88037V9.9375H79.949C79.9955 9.62012 80.0759 9.34082 80.1902 9.09961C80.3087 8.85417 80.4526 8.64681 80.6218 8.47754C80.7911 8.3125 80.9815 8.18766 81.1931 8.10303C81.4047 8.01416 81.629 7.96973 81.866 7.96973Z" fill="currentColor"/>
<path d="M68.2351 30H69.9314V29.8594C69.8259 29.5957 69.7439 29.2881 69.6853 28.9365C69.6267 28.5791 69.5974 28.2422 69.5974 27.9258V23.5049C69.5974 22.9717 69.5007 22.5059 69.3074 22.1074C69.114 21.709 68.8503 21.375 68.5164 21.1055C68.1765 20.8418 67.7751 20.6455 67.3123 20.5166C66.8494 20.3818 66.3484 20.3145 65.8093 20.3145C65.2175 20.3145 64.6873 20.3965 64.2185 20.5605C63.7556 20.7246 63.363 20.9385 63.0408 21.2021C62.7126 21.4717 62.4607 21.7734 62.2849 22.1074C62.115 22.4414 62.0271 22.7812 62.0212 23.127H63.656C63.656 22.9277 63.7029 22.7373 63.7966 22.5557C63.8962 22.3682 64.0339 22.207 64.2097 22.0723C64.3855 21.9375 64.5994 21.8291 64.8513 21.7471C65.1091 21.665 65.3992 21.624 65.7214 21.624C66.0671 21.624 66.3777 21.668 66.6531 21.7559C66.9343 21.8438 67.1716 21.9668 67.365 22.125C67.5583 22.2891 67.7078 22.4854 67.8132 22.7139C67.9187 22.9424 67.9714 23.2002 67.9714 23.4873V24.2344H66.196C65.5339 24.2344 64.9333 24.2988 64.3943 24.4277C63.8611 24.5566 63.4041 24.75 63.0232 25.0078C62.6423 25.2715 62.3464 25.5996 62.1355 25.9922C61.9304 26.3848 61.8279 26.8418 61.8279 27.3633C61.8279 27.7617 61.9041 28.1338 62.0564 28.4795C62.2146 28.8193 62.4373 29.1123 62.7244 29.3584C63.0056 29.6104 63.3484 29.8096 63.7527 29.9561C64.1628 30.1025 64.6199 30.1758 65.1238 30.1758C65.4343 30.1758 65.7273 30.1436 66.0027 30.0791C66.2781 30.0146 66.5388 29.9268 66.7849 29.8154C67.0251 29.7041 67.2449 29.5752 67.4441 29.4287C67.6492 29.2822 67.8337 29.127 67.9978 28.9629C68.0154 29.1621 68.0417 29.3555 68.0769 29.543C68.1179 29.7246 68.1707 29.877 68.2351 30ZM65.3611 28.7607C65.0447 28.7607 64.7664 28.7197 64.5261 28.6377C64.2859 28.5557 64.0867 28.4414 63.9285 28.2949C63.7703 28.1543 63.6501 27.9844 63.5681 27.7852C63.4919 27.5859 63.4539 27.3691 63.4539 27.1348C63.4539 26.8887 63.4978 26.6689 63.5857 26.4756C63.6794 26.2822 63.8142 26.1152 63.99 25.9746C64.2361 25.7754 64.5671 25.6289 64.9832 25.5352C65.405 25.4355 65.8972 25.3857 66.4597 25.3857H67.9714V27.3105C67.8777 27.498 67.7488 27.6797 67.5847 27.8555C67.4207 28.0254 67.2273 28.1777 67.0046 28.3125C66.7761 28.4473 66.5242 28.5557 66.2488 28.6377C65.9734 28.7197 65.6775 28.7607 65.3611 28.7607ZM79.116 27.4775C79.116 27.6299 79.0867 27.7734 79.0281 27.9082C78.9695 28.043 78.8845 28.166 78.7732 28.2773C78.5916 28.459 78.3396 28.6025 78.0173 28.708C77.6951 28.8076 77.3171 28.8574 76.8835 28.8574C76.6082 28.8574 76.3298 28.8281 76.0486 28.7695C75.7673 28.7109 75.5125 28.6113 75.2839 28.4707C75.0496 28.3301 74.8533 28.1455 74.6951 27.917C74.5427 27.6885 74.4548 27.4072 74.4314 27.0732H72.8054C72.8054 27.4775 72.8962 27.8672 73.0779 28.2422C73.2654 28.6172 73.5349 28.9453 73.8865 29.2266C74.2322 29.5137 74.657 29.7451 75.1609 29.9209C75.6648 30.0908 76.239 30.1758 76.8835 30.1758C77.446 30.1758 77.9646 30.1084 78.4392 29.9736C78.9138 29.8389 79.321 29.6484 79.6609 29.4023C80.0007 29.1562 80.2644 28.8604 80.4519 28.5146C80.6453 28.1689 80.7419 27.7852 80.7419 27.3633C80.7419 26.9707 80.657 26.625 80.4871 26.3262C80.323 26.0273 80.0828 25.7637 79.7664 25.5352C79.45 25.3125 79.0603 25.1221 78.5974 24.9639C78.1345 24.7998 77.6101 24.6562 77.0242 24.5332C76.5789 24.4453 76.2097 24.3545 75.9167 24.2607C75.6296 24.167 75.4011 24.0615 75.2312 23.9443C75.0554 23.8271 74.9324 23.6953 74.8621 23.5488C74.7917 23.4023 74.7566 23.2354 74.7566 23.0479C74.7566 22.8662 74.8005 22.6904 74.8884 22.5205C74.9763 22.3506 75.1082 22.2012 75.2839 22.0723C75.4539 21.9434 75.6677 21.8408 75.9255 21.7646C76.1892 21.6885 76.4939 21.6504 76.8396 21.6504C77.1736 21.6504 77.4724 21.6973 77.7361 21.791C78.0056 21.8848 78.2341 22.0078 78.4216 22.1602C78.6091 22.3125 78.7556 22.4883 78.8611 22.6875C78.9666 22.8809 79.0193 23.0801 79.0193 23.2852H80.6453C80.6453 22.8691 80.5544 22.4824 80.3728 22.125C80.197 21.7617 79.9451 21.4453 79.6169 21.1758C79.2888 20.9062 78.8904 20.6953 78.4216 20.543C77.9529 20.3906 77.4255 20.3145 76.8396 20.3145C76.2947 20.3145 75.7937 20.3877 75.3367 20.5342C74.8855 20.6807 74.4958 20.8799 74.1677 21.1318C73.8396 21.3838 73.5847 21.6797 73.4031 22.0195C73.2214 22.3535 73.1306 22.7139 73.1306 23.1006C73.1306 23.4932 73.2185 23.8389 73.3943 24.1377C73.5701 24.4307 73.8191 24.6855 74.1414 24.9023C74.4578 25.125 74.8386 25.3154 75.2839 25.4736C75.7351 25.6318 76.2332 25.7666 76.7781 25.8779C77.2234 25.9658 77.5955 26.0654 77.8943 26.1768C78.1931 26.2822 78.4333 26.3994 78.615 26.5283C78.7966 26.6572 78.9255 26.8008 79.0017 26.959C79.0779 27.1113 79.116 27.2842 79.116 27.4775ZM87.4568 18.1875H85.822V20.4902H83.3259V21.7471H85.822V26.915C85.822 27.501 85.8982 28.002 86.0505 28.418C86.2087 28.8281 86.4226 29.1621 86.6921 29.4199C86.9617 29.6836 87.2781 29.877 87.6414 30C88.0105 30.1172 88.406 30.1758 88.8279 30.1758C89.0798 30.1758 89.3318 30.1641 89.5837 30.1406C89.8416 30.1172 90.0847 30.082 90.3132 30.0352C90.5417 29.9941 90.7527 29.9443 90.946 29.8857C91.1394 29.8213 91.3035 29.748 91.4382 29.666L91.2097 28.5146C91.1101 28.5381 90.9812 28.5674 90.823 28.6025C90.6707 28.6318 90.5066 28.6611 90.3308 28.6904C90.1492 28.7197 89.9646 28.7461 89.7771 28.7695C89.5896 28.7871 89.408 28.7959 89.2322 28.7959C88.9919 28.7959 88.7634 28.7666 88.5466 28.708C88.3357 28.6494 88.1482 28.5469 87.9841 28.4004C87.8201 28.2598 87.6912 28.0693 87.5974 27.8291C87.5037 27.5889 87.4568 27.2842 87.4568 26.915V21.7471H91.0779V20.4902H87.4568V18.1875ZM98.6189 30.1758C99.5447 30.1758 100.321 29.9912 100.948 29.6221C101.581 29.2471 102.055 28.8193 102.372 28.3389L101.379 27.5654C101.08 27.9521 100.705 28.2627 100.254 28.4971C99.8025 28.7314 99.2869 28.8486 98.7068 28.8486C98.2673 28.8486 97.866 28.7666 97.5027 28.6025C97.1394 28.4385 96.8289 28.2129 96.571 27.9258C96.3191 27.6562 96.1199 27.3457 95.9734 26.9941C95.8328 26.6426 95.7419 26.2354 95.7009 25.7725V25.7109H102.495V24.9814C102.495 24.3193 102.41 23.7041 102.24 23.1357C102.076 22.5674 101.824 22.0723 101.484 21.6504C101.144 21.2344 100.717 20.9092 100.201 20.6748C99.6912 20.4346 99.0935 20.3145 98.408 20.3145C97.863 20.3145 97.3298 20.4258 96.8083 20.6484C96.2927 20.8711 95.8328 21.1904 95.4285 21.6064C95.0183 22.0283 94.6902 22.5439 94.4441 23.1533C94.198 23.7568 94.075 24.4424 94.075 25.21V25.5791C94.075 26.2412 94.1863 26.8535 94.4089 27.416C94.6316 27.9785 94.9421 28.4648 95.3406 28.875C95.739 29.2852 96.2166 29.6045 96.7732 29.833C97.3357 30.0615 97.9509 30.1758 98.6189 30.1758ZM98.408 21.6504C98.824 21.6504 99.1814 21.7266 99.4802 21.8789C99.7849 22.0312 100.037 22.2305 100.236 22.4766C100.435 22.7227 100.591 23.0156 100.702 23.3555C100.813 23.6895 100.869 24.0029 100.869 24.2959V24.375H95.7537C95.8181 23.9355 95.9294 23.5488 96.0876 23.2148C96.2517 22.875 96.4509 22.5879 96.6853 22.3535C96.9197 22.125 97.1833 21.9521 97.4763 21.835C97.7693 21.7119 98.0798 21.6504 98.408 21.6504ZM111.46 20.3145C110.768 20.3145 110.15 20.4668 109.605 20.7715C109.066 21.0703 108.603 21.4805 108.217 22.002L108.208 21.7646L108.137 20.4902H106.591V30H108.225V23.9004C108.331 23.6074 108.463 23.3438 108.621 23.1094C108.785 22.8691 108.975 22.667 109.192 22.5029C109.432 22.3154 109.714 22.1748 110.036 22.0811C110.358 21.9814 110.719 21.9316 111.117 21.9316C111.427 21.9316 111.723 21.9492 112.005 21.9844C112.292 22.0137 112.594 22.0635 112.91 22.1338L113.13 20.543C112.966 20.4727 112.719 20.417 112.391 20.376C112.069 20.335 111.759 20.3145 111.46 20.3145Z" fill="currentColor"/>
</svg>
