<svg width="128" height="128" viewBox="0 0 128 128" fill="none" xmlns="http://www.w3.org/2000/svg">
<mask id="mask0_48_16" style="mask-type:alpha" maskUnits="userSpaceOnUse" x="0" y="0" width="128" height="128">
<rect width="128" height="128" fill="white"/>
</mask>
<g mask="url(#mask0_48_16)">
<path d="M112.853 19.0507C115.973 17.1447 119.952 19.1566 120.325 22.7932C121.054 29.8944 122 39.775 122 43.1607C122 47.6866 122 88.6332 122 103.025C122 105.787 119.761 108 117 108H14.3044C12.2101 108 10.3381 106.697 9.67155 104.712C8.24624 100.466 6 93.1762 6 89.4011C6 84.6851 88.5616 33.8931 112.853 19.0507Z" fill="#181818"/>
<g filter="url(#filter0_ii_48_16)">
<rect x="6" y="18" width="114" height="77" rx="5" fill="#2E2E2E"/>
</g>
<rect x="6.1" y="18.1" width="113.8" height="76.8" rx="4.9" stroke="#181818" stroke-width="0.2"/>
<g filter="url(#filter1_d_48_16)">
<path d="M22.7136 71.9549C22.7136 75.5447 25.6238 78.4549 29.2136 78.4549C32.8035 78.4549 35.7136 75.5447 35.7136 71.9549H22.7136ZM90.2712 71.9549C90.2712 75.5447 93.1813 78.4549 96.7712 78.4549C100.361 78.4549 103.271 75.5447 103.271 71.9549H90.2712ZM86.334 49.9422C88.3892 46.9989 87.6693 42.9467 84.7259 40.8915C81.7826 38.8363 77.7305 39.5562 75.6753 42.4995L86.334 49.9422ZM57.7059 68.2336C55.6507 71.1769 56.3706 75.229 59.314 77.2842C62.2573 79.3395 66.3094 78.6195 68.3646 75.6762L57.7059 68.2336ZM35.7136 71.9549C35.7136 57.5023 47.7858 45.5 63.0353 45.5V32.5C40.9264 32.5 22.7136 50.0065 22.7136 71.9549H35.7136ZM63.0353 45.5C78.263 45.5 90.2712 57.4811 90.2712 71.9549H103.271C103.271 50.0278 85.166 32.5 63.0353 32.5V45.5ZM75.6753 42.4995L57.7059 68.2336L68.3646 75.6762L86.334 49.9422L75.6753 42.4995Z" fill="#E8C23F"/>
</g>
</g>
<defs>
<filter id="filter0_ii_48_16" x="-5" y="9" width="126" height="87" filterUnits="userSpaceOnUse" color-interpolation-filters="sRGB">
<feFlood flood-opacity="0" result="BackgroundImageFix"/>
<feBlend mode="normal" in="SourceGraphic" in2="BackgroundImageFix" result="shape"/>
<feColorMatrix in="SourceAlpha" type="matrix" values="0 0 0 0 0 0 0 0 0 0 0 0 0 0 0 0 0 0 127 0" result="hardAlpha"/>
<feMorphology radius="7" operator="dilate" in="SourceAlpha" result="effect1_innerShadow_48_16"/>
<feOffset dx="12" dy="14"/>
<feGaussianBlur stdDeviation="4"/>
<feComposite in2="hardAlpha" operator="arithmetic" k2="-1" k3="1"/>
<feColorMatrix type="matrix" values="0 0 0 0 0.120833 0 0 0 0 0.120833 0 0 0 0 0.120833 0 0 0 1 0"/>
<feBlend mode="normal" in2="shape" result="effect1_innerShadow_48_16"/>
<feColorMatrix in="SourceAlpha" type="matrix" values="0 0 0 0 0 0 0 0 0 0 0 0 0 0 0 0 0 0 127 0" result="hardAlpha"/>
<feMorphology radius="1" operator="dilate" in="SourceAlpha" result="effect2_innerShadow_48_16"/>
<feOffset dx="-17" dy="-9"/>
<feGaussianBlur stdDeviation="6"/>
<feComposite in2="hardAlpha" operator="arithmetic" k2="-1" k3="1"/>
<feColorMatrix type="matrix" values="0 0 0 0 0.15 0 0 0 0 0.15 0 0 0 0 0.15 0 0 0 1 0"/>
<feBlend mode="normal" in2="effect1_innerShadow_48_16" result="effect2_innerShadow_48_16"/>
</filter>
<filter id="filter1_d_48_16" x="18.7136" y="32.5" width="88.5576" height="53.9554" filterUnits="userSpaceOnUse" color-interpolation-filters="sRGB">
<feFlood flood-opacity="0" result="BackgroundImageFix"/>
<feColorMatrix in="SourceAlpha" type="matrix" values="0 0 0 0 0 0 0 0 0 0 0 0 0 0 0 0 0 0 127 0" result="hardAlpha"/>
<feOffset dy="4"/>
<feGaussianBlur stdDeviation="2"/>
<feComposite in2="hardAlpha" operator="out"/>
<feColorMatrix type="matrix" values="0 0 0 0 0 0 0 0 0 0 0 0 0 0 0 0 0 0 0.25 0"/>
<feBlend mode="normal" in2="BackgroundImageFix" result="effect1_dropShadow_48_16"/>
<feBlend mode="normal" in="SourceGraphic" in2="effect1_dropShadow_48_16" result="shape"/>
</filter>
</defs>
</svg>
